<?xml version="1.0" standalone="no"?>
<!DOCTYPE svg PUBLIC "-//W3C//DTD SVG 20010904//EN"
 "http://www.w3.org/TR/2001/REC-SVG-20010904/DTD/svg10.dtd">
<svg version="1.0" xmlns="http://www.w3.org/2000/svg"
 width="100.000000pt" height="76.000000pt" viewBox="0 0 100.000000 76.000000"
 preserveAspectRatio="xMidYMid meet">
<metadata>
Created by potrace 1.16, written by Peter Selinger 2001-2019
</metadata>
<g transform="translate(0.000000,76.000000) scale(0.100000,-0.100000)"
fill="#000000" stroke="none">
<path d="M0 380 l0 -380 500 0 500 0 0 380 0 380 -500 0 -500 0 0 -380z m571
330 c45 -10 83 -21 86 -24 2 -2 -30 -12 -72 -22 -73 -17 -78 -17 -148 1 -39
10 -76 20 -81 23 -6 3 21 13 60 23 38 9 70 17 71 18 1 0 39 -8 84 -19z m-81
-84 c107 -30 188 -56 180 -60 -8 -3 -49 -14 -90 -24 l-75 -19 -202 51 c-111
28 -204 54 -208 58 -4 3 20 12 52 18 32 7 74 16 93 20 19 4 40 8 45 9 6 0 98
-24 205 -53z m338 28 c46 -10 79 -20 75 -24 -11 -10 -136 -40 -165 -40 -30 0
-158 33 -158 40 0 7 113 37 145 39 11 1 57 -6 103 -15z m-595 -90 c100 -25
199 -49 220 -55 l37 -10 0 -229 c0 -127 -3 -230 -7 -230 -6 0 -175 70 -358
148 l-90 38 -3 192 c-2 131 1 192 8 192 6 0 93 -20 193 -46z m742 -16 c3 -35
5 -121 3 -191 l-3 -128 -220 -94 c-121 -52 -223 -95 -227 -95 -5 0 -8 103 -8
230 l0 230 28 7 c15 3 110 28 212 54 102 26 190 48 197 48 7 1 14 -23 18 -61z"/>
</g>
</svg>
